<?xml version="1.0" encoding="UTF-8"?>
<svg width="586px" height="524px" viewBox="0 0 586 524" version="1.1" xmlns="http://www.w3.org/2000/svg" xmlns:xlink="http://www.w3.org/1999/xlink">
    <!-- Generator: Sketch 60.1 (88133) - https://sketch.com -->
    <title>logo</title>
    <desc>Created with Sketch.</desc>
    <g id="页面-1" stroke="none" stroke-width="1" fill="none" fill-rule="evenodd">
        <g id="yew" transform="translate(111.000000, 22.000000)">
            <circle id="椭圆形" fill="#FFEFB8" fill-rule="nonzero" cx="180" cy="187.2" r="180"></circle>
            <line x1="181.70856" y1="194.64408" x2="7.2" y2="0" id="路径" stroke="#444444" stroke-width="43.2" stroke-linecap="round"></line>
            <line x1="181.70856" y1="194.64408" x2="356.21712" y2="0" id="路径" stroke="#444444" stroke-width="43.2" stroke-linecap="round"></line>
            <line x1="181.70856" y1="194.64408" x2="181.70856" y2="396" id="路径" stroke="#444444" stroke-width="43.2" stroke-linecap="round"></line>
            <circle id="椭圆形" stroke="#444444" stroke-width="28.8" fill="#FFD707" fill-rule="nonzero" cx="180" cy="194.4" r="50.4"></circle>
        </g>
        <g id="awesome" transform="translate(0.000000, 89.000000)" fill-rule="nonzero">
            <path d="M50.9,370.1 C54.9,370.1 58.2,371.5 61,374.3 C63.8,377.1 65.2,380.5 65.2,384.4 L65.2,434 L14.5,434 C10.5,434 7.2,432.6 4.4,429.8 C1.6,427 0.2,423.6 0.2,419.7 L0.2,396.1 L53.3,396.1 L53.3,384.4 C53.3,383.7 53.1,383.2 52.6,382.7 C52.1,382.2 51.6,382 50.9,382 L0.2,382 L0.2,370.1 L50.9,370.1 Z M53.3,422.1 L53.3,408 L12.1,408 L12.1,419.7 C12.1,420.4 12.3,420.9 12.8,421.4 C13.3,421.9 13.8,422.1 14.5,422.1 L53.3,422.1 L53.3,422.1 Z M168,370.1 L180.7,370.1 L156.7,434 L147,434 L125.5,386.5 L105.2,434 L105,433.9 L105.1,434 L95.5,434 L70.4,370.1 L83,370.1 L100.3,412.5 L118.7,370.1 L132.3,370.1 L151.8,412.5 L168,370.1 Z M235.2,370.1 C239.2,370.1 242.5,371.5 245.3,374.3 C248.1,377.1 249.5,380.5 249.5,384.4 L249.5,408 L196.4,408 L196.4,419.7 C196.4,420.4 196.6,420.9 197.1,421.4 C197.6,421.9 198.1,422.1 198.8,422.1 L249.5,422.1 L249.5,434 L198.8,434 C194.8,434 191.5,432.6 188.7,429.8 C185.9,427 184.5,423.6 184.5,419.7 L184.5,384.4 C184.5,380.4 185.9,377.1 188.7,374.3 C191.5,371.5 194.9,370.1 198.8,370.1 L235.2,370.1 L235.2,370.1 Z M196.4,396.1 L237.6,396.1 L237.6,384.4 C237.6,383.7 237.4,383.2 236.9,382.7 C236.4,382.2 235.9,382 235.2,382 L198.8,382 C198.1,382 197.6,382.2 197.1,382.7 C196.6,383.2 196.4,383.7 196.4,384.4 L196.4,396.1 L196.4,396.1 Z M325.4,384.5 L325.4,386.9 L313.5,386.9 L313.5,384.5 C313.5,383.8 313.3,383.3 312.8,382.8 C312.3,382.3 311.8,382.1 311.1,382.1 L274.7,382.1 C274,382.1 273.5,382.3 273,382.8 C272.5,383.3 272.3,383.8 272.3,384.5 L272.3,393.8 C272.3,394.5 272.5,395 273,395.5 C273.5,396 274,396.2 274.7,396.2 L311.1,396.2 C315.1,396.2 318.4,397.6 321.2,400.4 C324,403.2 325.4,406.6 325.4,410.5 L325.4,419.8 C325.4,423.8 324,427.1 321.2,429.9 C318.4,432.7 315,434.1 311.1,434.1 L274.7,434.1 C270.7,434.1 267.4,432.7 264.6,429.9 C261.8,427.1 260.4,423.7 260.4,419.8 L260.4,417.4 L272.3,417.4 L272.3,419.8 C272.3,420.5 272.5,421 273,421.5 C273.5,422 274,422.2 274.7,422.2 L311.1,422.2 C311.8,422.2 312.3,422 312.8,421.5 C313.3,421 313.5,420.5 313.5,419.8 L313.5,410.5 C313.5,409.8 313.3,409.3 312.8,408.8 C312.3,408.3 311.8,408.1 311.1,408.1 L274.7,408.1 C270.7,408.1 267.4,406.7 264.6,403.9 C261.8,401.1 260.4,397.7 260.4,393.8 L260.4,384.5 C260.4,380.5 261.8,377.2 264.6,374.4 C267.4,371.6 270.8,370.2 274.7,370.2 L311.1,370.2 C315.1,370.2 318.4,371.6 321.2,374.4 C324,377.1 325.4,380.5 325.4,384.5 Z M350.6,370.1 L387,370.1 C391,370.1 394.3,371.5 397.1,374.3 C399.9,377.1 401.3,380.5 401.3,384.4 L401.3,419.7 C401.3,423.7 399.9,427 397.1,429.8 C394.3,432.6 390.9,434 387,434 L350.6,434 C346.6,434 343.3,432.6 340.5,429.8 C337.7,427 336.3,423.6 336.3,419.7 L336.3,384.4 C336.3,380.4 337.7,377.1 340.5,374.3 C343.3,371.5 346.7,370.1 350.6,370.1 L350.6,370.1 Z M387,382 L350.6,382 C349.9,382 349.4,382.2 348.9,382.7 C348.4,383.2 348.2,383.7 348.2,384.4 L348.2,419.7 C348.2,420.4 348.4,420.9 348.9,421.4 C349.4,421.9 349.9,422.1 350.6,422.1 L387,422.1 C387.7,422.1 388.2,421.9 388.7,421.4 C389.2,420.9 389.4,420.4 389.4,419.7 L389.4,384.4 C389.4,383.7 389.2,383.2 388.7,382.7 C388.2,382.3 387.7,382 387,382 Z M494.5,370.1 C498.5,370.1 501.8,371.5 504.6,374.3 C507.4,377.1 508.8,380.5 508.8,384.4 L508.8,434 L497,434 L497,384.4 C497,383.7 496.8,383.2 496.3,382.7 C495.8,382.2 495.2,382 494.5,382 L469.3,382 C468.6,382 468.1,382.2 467.6,382.7 C467.1,383.2 466.9,383.7 466.9,384.4 L466.9,434 L455,434 L455,384.4 C455,383.7 454.8,383.2 454.3,382.7 C453.8,382.2 453.3,382 452.6,382 L427.3,382 C426.6,382 426.1,382.2 425.6,382.7 C425.1,383.2 424.9,383.7 424.9,384.4 L424.9,434 L413,434 L413,370.1 L494.5,370.1 Z M571,370.1 C575,370.1 578.3,371.5 581.1,374.3 C583.9,377.1 585.3,380.5 585.3,384.4 L585.3,408 L532.2,408 L532.2,419.7 C532.2,420.4 532.4,420.9 532.9,421.4 C533.4,421.9 533.9,422.1 534.6,422.1 L585.3,422.1 L585.3,434 L534.6,434 C530.6,434 527.3,432.6 524.5,429.8 C521.7,427 520.3,423.6 520.3,419.7 L520.3,384.4 C520.3,380.4 521.7,377.1 524.5,374.3 C527.3,371.5 530.7,370.1 534.6,370.1 L571,370.1 L571,370.1 Z M532.2,396.1 L573.4,396.1 L573.4,384.4 C573.4,383.7 573.2,383.2 572.7,382.7 C572.2,382.2 571.7,382 571,382 L534.6,382 C533.9,382 533.4,382.2 532.9,382.7 C532.4,383.2 532.2,383.7 532.2,384.4 L532.2,396.1 L532.2,396.1 Z" id="形状" fill="#494368"></path>
            <path d="M585.2,138 L435.2,0.4 L414.1,23.4 L539.1,138 L46.4,138 L171.4,23.3 L150.3,0.3 L0.3,138 L0.2,138 L0.2,228.7 C0.2,269.7 39.7,303.1 88.2,303.1 L180.7,303.1 C229.2,303.1 268.7,269.7 268.7,228.7 L268.7,169.1 L316.7,169.1 L316.7,228.7 C316.7,269.7 356.2,303.1 404.7,303.1 L497.2,303.1 C545.7,303.1 585.2,269.7 585.2,228.7 L585.2,138 Z" id="路径" fill="#FC60A8"></path>
        </g>
    </g>
</svg>